<svg xmlns="http://www.w3.org/2000/svg" viewBox="0 0 256.95 235.59" width="250px" height="229.2px"><defs><style>.cls-1{opacity:0.1;}.cls-2{fill:#534741;}.cls-3{fill:#be3333;}.cls-4{fill:#e49898;}</style></defs><title>bacon</title><g id="Layer_2" data-name="Layer 2"><g id="Toppings"><g id="bacon"><g class="cls-1"><path class="cls-2" d="M168.46,46l-4.94-13.23,11.07-1.34a10.12,10.12,0,0,0,4.52-1.69l7-4.76A10.35,10.35,0,0,1,191,23.25l6.83-.6a10.2,10.2,0,0,0,4.63-1.58l10.72-6.86,4.94,13.23-10.72,6.87a10.19,10.19,0,0,1-4.63,1.57l-6.83.6a10.27,10.27,0,0,0-4.84,1.72l-7,4.77a10.22,10.22,0,0,1-4.52,1.68Z"/><path class="cls-2" d="M204.3,26a10.32,10.32,0,0,1-4.63,1.58l-6.83.6A10.17,10.17,0,0,0,188,29.94l-7,4.76a10.37,10.37,0,0,1-4.51,1.69l-11.08,1.33.73,2,11.08-1.34a10.23,10.23,0,0,0,4.51-1.68l7-4.77a10.27,10.27,0,0,1,4.84-1.72l6.84-.6A10.19,10.19,0,0,0,205,28l10.72-6.87L215,19.18Z"/><path class="cls-2" d="M206.66,32.35A10.32,10.32,0,0,1,202,33.93l-6.83.6a10.17,10.17,0,0,0-4.84,1.72l-7,4.76a10.36,10.36,0,0,1-4.52,1.69L167.73,44l.73,2,11.07-1.34A10.22,10.22,0,0,0,184.05,43l7-4.77a10.27,10.27,0,0,1,4.84-1.72l6.83-.6a10.19,10.19,0,0,0,4.63-1.57l10.72-6.87-.73-2Z"/><path class="cls-2" d="M4,91.85l.69-14.1,10.7,3.15a10.34,10.34,0,0,0,4.82.24l8.34-1.6a10.27,10.27,0,0,1,5.13.34L40.19,82a10.23,10.23,0,0,0,4.88.38l12.56-2.07-.69,14.11L44.38,96.52a10.47,10.47,0,0,1-4.88-.38L33,94a10.15,10.15,0,0,0-5.13-.34l-8.35,1.59A10.17,10.17,0,0,1,14.7,95Z"/><path class="cls-2" d="M44.81,87.7a10.23,10.23,0,0,1-4.88-.38l-6.51-2.15a10.26,10.26,0,0,0-5.13-.33L20,86.43a10.34,10.34,0,0,1-4.82-.24L4.43,83l-.1,2.09L15,88.28a10.17,10.17,0,0,0,4.81.23l8.35-1.59a10.27,10.27,0,0,1,5.13.34l6.51,2.15a10.22,10.22,0,0,0,4.88.38l12.56-2.07.1-2.08Z"/><path class="cls-2" d="M44.48,94.43a10.23,10.23,0,0,1-4.88-.38L33.09,91.9A10.27,10.27,0,0,0,28,91.56l-8.35,1.6a10.31,10.31,0,0,1-4.81-.24L4.1,89.77,4,91.85,14.7,95a10.17,10.17,0,0,0,4.81.23l8.35-1.59A10.15,10.15,0,0,1,33,94l6.51,2.15a10.47,10.47,0,0,0,4.88.38l12.56-2.07.1-2.08Z"/><path class="cls-2" d="M134.69,235.59l-11.34-8.42,8.57-7.14a10.27,10.27,0,0,0,2.87-3.87l3.32-7.83a10.26,10.26,0,0,1,3.13-4.07l5.41-4.22a10.29,10.29,0,0,0,3-3.84l5.27-11.59L166.28,193,161,204.62a10.29,10.29,0,0,1-3,3.84l-5.41,4.22a10.26,10.26,0,0,0-3.13,4.07l-3.32,7.83a10.24,10.24,0,0,1-2.87,3.87Z"/><path class="cls-2" d="M153.93,199.36a10.42,10.42,0,0,1-3,3.84l-5.41,4.22a10.26,10.26,0,0,0-3.13,4.07l-3.31,7.83a10.3,10.3,0,0,1-2.88,3.87l-8.57,7.14,1.68,1.24,8.57-7.14a10.17,10.17,0,0,0,2.87-3.87l3.32-7.82a10.29,10.29,0,0,1,3.13-4.08l5.41-4.22a10.14,10.14,0,0,0,3-3.84L160.87,189l-1.68-1.25Z"/><path class="cls-2" d="M159.34,203.37a10.26,10.26,0,0,1-3,3.84l-5.41,4.22a10.29,10.29,0,0,0-3.13,4.08l-3.32,7.82a10.17,10.17,0,0,1-2.87,3.87L133,234.34l1.68,1.25,8.57-7.14a10.24,10.24,0,0,0,2.87-3.87l3.32-7.83a10.26,10.26,0,0,1,3.13-4.07l5.41-4.22a10.29,10.29,0,0,0,3-3.84L166.28,193l-1.68-1.24Z"/><path class="cls-2" d="M55.68,14.39,65.25,4l6.2,9.27A10.18,10.18,0,0,0,75,16.54l7.44,4.12a10.27,10.27,0,0,1,3.72,3.54L89.78,30a10.2,10.2,0,0,0,3.49,3.42l11,6.46L94.68,50.29l-11-6.46a10.2,10.2,0,0,1-3.5-3.41l-3.63-5.83a10.19,10.19,0,0,0-3.72-3.54l-7.43-4.12a10.3,10.3,0,0,1-3.55-3.27Z"/><path class="cls-2" d="M89.69,37.34a10.14,10.14,0,0,1-3.5-3.42L82.56,28.1a10.18,10.18,0,0,0-3.72-3.54l-7.43-4.12a10.12,10.12,0,0,1-3.55-3.27L61.66,7.9,60.25,9.44l6.19,9.27A10.37,10.37,0,0,0,70,22l7.43,4.13a10.21,10.21,0,0,1,3.73,3.54l3.62,5.82a10.29,10.29,0,0,0,3.5,3.41l11,6.46,1.41-1.54Z"/><path class="cls-2" d="M85.12,42.29a10.38,10.38,0,0,1-3.5-3.41L78,33.06a10.14,10.14,0,0,0-3.73-3.54l-7.43-4.13a10.25,10.25,0,0,1-3.54-3.26l-6.2-9.27-1.42,1.53,6.2,9.27a10.3,10.3,0,0,0,3.55,3.27l7.43,4.12a10.27,10.27,0,0,1,3.72,3.54l3.63,5.83a10.2,10.2,0,0,0,3.5,3.41l11,6.46,1.41-1.54Z"/><path class="cls-2" d="M75.36,219.52l-13.59-3.86L67.26,206a10.23,10.23,0,0,0,1.32-4.64l.34-8.49a10.28,10.28,0,0,1,1.48-4.92L74,182a10.25,10.25,0,0,0,1.47-4.66l.83-12.7,13.59,3.86L89,181.24a10.42,10.42,0,0,1-1.47,4.67L84,191.76a10.25,10.25,0,0,0-1.49,4.93l-.33,8.49a10.35,10.35,0,0,1-1.32,4.63Z"/><path class="cls-2" d="M80.54,178.83a10.25,10.25,0,0,1-1.47,4.66l-3.57,5.86A10.29,10.29,0,0,0,74,194.27l-.33,8.49a10.35,10.35,0,0,1-1.32,4.64l-5.49,9.71,2,.57L74.37,208a10.35,10.35,0,0,0,1.32-4.64l.33-8.49a10.22,10.22,0,0,1,1.49-4.92l3.57-5.86a10.38,10.38,0,0,0,1.47-4.66l.83-12.7-2-.57Z"/><path class="cls-2" d="M87,180.67a10.25,10.25,0,0,1-1.47,4.66L82,191.19a10.32,10.32,0,0,0-1.49,4.92l-.33,8.49a10.35,10.35,0,0,1-1.32,4.64L73.35,219l2,.57,5.49-9.71a10.35,10.35,0,0,0,1.32-4.63l.33-8.5A10.25,10.25,0,0,1,84,191.76l3.57-5.85A10.42,10.42,0,0,0,89,181.24l.83-12.7-2-.57Z"/><path class="cls-2" d="M214.68,101.62l11.51-8.2,4.15,10.35a10.35,10.35,0,0,0,2.8,3.93l6.42,5.56a10.22,10.22,0,0,1,2.91,4.24l2.35,6.44a10.29,10.29,0,0,0,2.72,4.06l9.41,8.58-11.51,8.2L236,136.2a10.25,10.25,0,0,1-2.72-4.06L231,125.69a10.25,10.25,0,0,0-2.91-4.23l-6.42-5.57a10,10,0,0,1-2.8-3.92Z"/><path class="cls-2" d="M243.23,131.08a10.25,10.25,0,0,1-2.72-4.06l-2.35-6.45a10.28,10.28,0,0,0-2.92-4.23l-6.42-5.57a10.24,10.24,0,0,1-2.8-3.92L221.87,96.5l-1.7,1.21,4.15,10.35a10.24,10.24,0,0,0,2.8,3.92l6.42,5.57a10.28,10.28,0,0,1,2.92,4.23l2.34,6.45a10.28,10.28,0,0,0,2.73,4.06l9.4,8.58,1.7-1.21Z"/><path class="cls-2" d="M237.74,135a10.25,10.25,0,0,1-2.72-4.06l-2.35-6.45a10.25,10.25,0,0,0-2.91-4.23l-6.42-5.57a10.14,10.14,0,0,1-2.8-3.92l-4.16-10.35-1.7,1.21L218.84,112a10,10,0,0,0,2.8,3.92l6.42,5.57a10.25,10.25,0,0,1,2.91,4.23l2.35,6.45A10.25,10.25,0,0,0,236,136.2l9.4,8.58,1.7-1.21Z"/><path class="cls-2" d="M146.46,151l-4.94-13.23,11.07-1.34a10.12,10.12,0,0,0,4.52-1.69l7-4.76a10.35,10.35,0,0,1,4.85-1.72l6.83-.6a10.2,10.2,0,0,0,4.63-1.58l10.72-6.86,4.94,13.23-10.72,6.87a10.19,10.19,0,0,1-4.63,1.57l-6.83.6a10.27,10.27,0,0,0-4.84,1.72l-7,4.77a10.22,10.22,0,0,1-4.52,1.68Z"/><path class="cls-2" d="M182.3,131a10.32,10.32,0,0,1-4.63,1.58l-6.83.6a10.17,10.17,0,0,0-4.84,1.72l-7,4.76a10.37,10.37,0,0,1-4.51,1.69l-11.08,1.33.73,2,11.08-1.34a10.23,10.23,0,0,0,4.51-1.68l7-4.77a10.27,10.27,0,0,1,4.84-1.72l6.84-.6A10.19,10.19,0,0,0,183,133l10.72-6.87-.73-1.95Z"/><path class="cls-2" d="M184.66,137.35a10.32,10.32,0,0,1-4.63,1.58l-6.83.6a10.17,10.17,0,0,0-4.84,1.72l-7,4.76a10.36,10.36,0,0,1-4.52,1.69L145.73,149l.73,2,11.07-1.34a10.22,10.22,0,0,0,4.52-1.68l7-4.77a10.27,10.27,0,0,1,4.84-1.72l6.83-.6a10.19,10.19,0,0,0,4.63-1.57l10.72-6.87-.73-1.95Z"/><path class="cls-2" d="M90.87,124.25l-11.06-8.78,8.79-6.86a10.15,10.15,0,0,0,3-3.78l3.57-7.71a10.25,10.25,0,0,1,3.26-4l5.54-4a10.28,10.28,0,0,0,3.15-3.74L112.75,74l11.07,8.78-5.64,11.41A10.17,10.17,0,0,1,115,97.88l-5.54,4a10.34,10.34,0,0,0-3.26,4l-3.57,7.71a10.22,10.22,0,0,1-3,3.78Z"/><path class="cls-2" d="M111.27,88.66a10.27,10.27,0,0,1-3.15,3.74l-5.54,4a10.15,10.15,0,0,0-3.26,4l-3.57,7.72a10.27,10.27,0,0,1-3,3.77L84,118.76l1.64,1.3,8.79-6.86a10.35,10.35,0,0,0,3-3.78l3.57-7.71a10.15,10.15,0,0,1,3.26-4l5.54-4A10.32,10.32,0,0,0,112.9,90l5.64-11.42-1.63-1.29Z"/><path class="cls-2" d="M116.55,92.85a10.45,10.45,0,0,1-3.15,3.74l-5.54,4a10.15,10.15,0,0,0-3.26,4L101,112.31a10.25,10.25,0,0,1-3,3.78L89.24,123l1.63,1.3,8.8-6.86a10.22,10.22,0,0,0,3-3.78l3.57-7.71a10.34,10.34,0,0,1,3.26-4l5.54-4a10.17,10.17,0,0,0,3.15-3.74l5.64-11.41-1.64-1.3Z"/></g><path class="cls-3" d="M164.46,42l-4.94-13.23,11.07-1.34a10.12,10.12,0,0,0,4.52-1.69l7-4.76A10.35,10.35,0,0,1,187,19.25l6.83-.6a10.2,10.2,0,0,0,4.63-1.58l10.72-6.86,4.94,13.23-10.72,6.87a10.19,10.19,0,0,1-4.63,1.57l-6.83.6a10.27,10.27,0,0,0-4.84,1.72l-7,4.77a10.22,10.22,0,0,1-4.52,1.68Z"/><path class="cls-4" d="M200.3,22a10.32,10.32,0,0,1-4.63,1.58l-6.83.6A10.17,10.17,0,0,0,184,25.94l-7,4.76a10.37,10.37,0,0,1-4.51,1.69l-11.08,1.33.73,2,11.08-1.34a10.23,10.23,0,0,0,4.51-1.68l7-4.77a10.27,10.27,0,0,1,4.84-1.72l6.84-.6A10.19,10.19,0,0,0,201,24l10.72-6.87L211,15.18Z"/><path class="cls-4" d="M202.66,28.35A10.32,10.32,0,0,1,198,29.93l-6.83.6a10.17,10.17,0,0,0-4.84,1.72l-7,4.76a10.36,10.36,0,0,1-4.52,1.69L163.73,40l.73,2,11.07-1.34A10.22,10.22,0,0,0,180.05,39l7-4.77a10.27,10.27,0,0,1,4.84-1.72l6.83-.6a10.19,10.19,0,0,0,4.63-1.57l10.72-6.87-.73-2Z"/><path class="cls-3" d="M0,87.85l.69-14.1,10.7,3.15a10.34,10.34,0,0,0,4.82.24l8.34-1.6a10.27,10.27,0,0,1,5.13.34L36.19,78a10.23,10.23,0,0,0,4.88.38l12.56-2.07-.69,14.11L40.38,92.52a10.47,10.47,0,0,1-4.88-.38L29,90a10.15,10.15,0,0,0-5.13-.34l-8.35,1.59A10.17,10.17,0,0,1,10.7,91Z"/><path class="cls-4" d="M40.81,83.7a10.23,10.23,0,0,1-4.88-.38l-6.51-2.15a10.26,10.26,0,0,0-5.13-.33L16,82.43a10.34,10.34,0,0,1-4.82-.24L.43,79l-.1,2.09L11,84.28a10.17,10.17,0,0,0,4.81.23l8.35-1.59a10.27,10.27,0,0,1,5.13.34l6.51,2.15a10.22,10.22,0,0,0,4.88.38l12.56-2.07.1-2.08Z"/><path class="cls-4" d="M40.48,90.43a10.23,10.23,0,0,1-4.88-.38L29.09,87.9A10.27,10.27,0,0,0,24,87.56l-8.35,1.6a10.31,10.31,0,0,1-4.81-.24L.1,85.77,0,87.85,10.7,91a10.17,10.17,0,0,0,4.81.23l8.35-1.59A10.15,10.15,0,0,1,29,90l6.51,2.15a10.47,10.47,0,0,0,4.88.38l12.56-2.07.1-2.08Z"/><path class="cls-3" d="M130.69,231.59l-11.34-8.42,8.57-7.14a10.27,10.27,0,0,0,2.87-3.87l3.32-7.83a10.26,10.26,0,0,1,3.13-4.07l5.41-4.22a10.29,10.29,0,0,0,3-3.84l5.27-11.59L162.28,189,157,200.62a10.29,10.29,0,0,1-3,3.84l-5.41,4.22a10.26,10.26,0,0,0-3.13,4.07l-3.32,7.83a10.24,10.24,0,0,1-2.87,3.87Z"/><path class="cls-4" d="M149.93,195.36a10.42,10.42,0,0,1-3,3.84l-5.41,4.22a10.26,10.26,0,0,0-3.13,4.07l-3.31,7.83a10.3,10.3,0,0,1-2.88,3.87l-8.57,7.14,1.68,1.24,8.57-7.14a10.17,10.17,0,0,0,2.87-3.87l3.32-7.82a10.29,10.29,0,0,1,3.13-4.08l5.41-4.22a10.14,10.14,0,0,0,3-3.84L156.87,185l-1.68-1.25Z"/><path class="cls-4" d="M155.34,199.37a10.26,10.26,0,0,1-3,3.84l-5.41,4.22a10.29,10.29,0,0,0-3.13,4.08l-3.32,7.82a10.17,10.17,0,0,1-2.87,3.87L129,230.34l1.68,1.25,8.57-7.14a10.24,10.24,0,0,0,2.87-3.87l3.32-7.83a10.26,10.26,0,0,1,3.13-4.07l5.41-4.22a10.29,10.29,0,0,0,3-3.84L162.28,189l-1.68-1.24Z"/><path class="cls-3" d="M51.68,10.39,61.25,0l6.2,9.27A10.18,10.18,0,0,0,71,12.54l7.44,4.12a10.27,10.27,0,0,1,3.72,3.54L85.78,26a10.2,10.2,0,0,0,3.49,3.42l11,6.46L90.68,46.29l-11-6.46a10.2,10.2,0,0,1-3.5-3.41l-3.63-5.83a10.19,10.19,0,0,0-3.72-3.54l-7.43-4.12a10.3,10.3,0,0,1-3.55-3.27Z"/><path class="cls-4" d="M85.69,33.34a10.14,10.14,0,0,1-3.5-3.42L78.56,24.1a10.18,10.18,0,0,0-3.72-3.54l-7.43-4.12a10.12,10.12,0,0,1-3.55-3.27L57.66,3.9,56.25,5.44l6.19,9.27A10.37,10.37,0,0,0,66,18l7.43,4.13a10.21,10.21,0,0,1,3.73,3.54l3.62,5.82a10.29,10.29,0,0,0,3.5,3.41l11,6.46,1.41-1.54Z"/><path class="cls-4" d="M81.12,38.29a10.38,10.38,0,0,1-3.5-3.41L74,29.06a10.14,10.14,0,0,0-3.73-3.54l-7.43-4.13a10.25,10.25,0,0,1-3.54-3.26L53.1,8.86l-1.42,1.53,6.2,9.27a10.3,10.3,0,0,0,3.55,3.27l7.43,4.12a10.27,10.27,0,0,1,3.72,3.54l3.63,5.83a10.2,10.2,0,0,0,3.5,3.41l11,6.46,1.41-1.54Z"/><path class="cls-3" d="M71.36,215.52l-13.59-3.86L63.26,202a10.23,10.23,0,0,0,1.32-4.64l.34-8.49a10.28,10.28,0,0,1,1.48-4.92L70,178a10.25,10.25,0,0,0,1.47-4.66l.83-12.7,13.59,3.86L85,177.24a10.42,10.42,0,0,1-1.47,4.67L80,187.76a10.25,10.25,0,0,0-1.49,4.93l-.33,8.49a10.35,10.35,0,0,1-1.32,4.63Z"/><path class="cls-4" d="M76.54,174.83a10.25,10.25,0,0,1-1.47,4.66l-3.57,5.86A10.29,10.29,0,0,0,70,190.27l-.33,8.49a10.35,10.35,0,0,1-1.32,4.64l-5.49,9.71,2,.57L70.37,204a10.35,10.35,0,0,0,1.32-4.64l.33-8.49a10.22,10.22,0,0,1,1.49-4.92l3.57-5.86a10.38,10.38,0,0,0,1.47-4.66l.83-12.7-2-.57Z"/><path class="cls-4" d="M83,176.67a10.25,10.25,0,0,1-1.47,4.66L78,187.19a10.32,10.32,0,0,0-1.49,4.92l-.33,8.49a10.35,10.35,0,0,1-1.32,4.64L69.35,215l2,.57,5.49-9.71a10.35,10.35,0,0,0,1.32-4.63l.33-8.5A10.25,10.25,0,0,1,80,187.76l3.57-5.85A10.42,10.42,0,0,0,85,177.24l.83-12.7-2-.57Z"/><path class="cls-3" d="M210.68,97.62l11.51-8.2,4.15,10.35a10.35,10.35,0,0,0,2.8,3.93l6.42,5.56a10.22,10.22,0,0,1,2.91,4.24l2.35,6.44a10.29,10.29,0,0,0,2.72,4.06l9.41,8.58-11.51,8.2L232,132.2a10.25,10.25,0,0,1-2.72-4.06L227,121.69a10.25,10.25,0,0,0-2.91-4.23l-6.42-5.57a10,10,0,0,1-2.8-3.92Z"/><path class="cls-4" d="M239.23,127.08a10.25,10.25,0,0,1-2.72-4.06l-2.35-6.45a10.28,10.28,0,0,0-2.92-4.23l-6.42-5.57a10.24,10.24,0,0,1-2.8-3.92L217.87,92.5l-1.7,1.21,4.15,10.35a10.24,10.24,0,0,0,2.8,3.92l6.42,5.57a10.28,10.28,0,0,1,2.92,4.23l2.34,6.45a10.28,10.28,0,0,0,2.73,4.06l9.4,8.58,1.7-1.21Z"/><path class="cls-4" d="M233.74,131a10.25,10.25,0,0,1-2.72-4.06l-2.35-6.45a10.25,10.25,0,0,0-2.91-4.23l-6.42-5.57a10.14,10.14,0,0,1-2.8-3.92l-4.16-10.35-1.7,1.21L214.84,108a10,10,0,0,0,2.8,3.92l6.42,5.57a10.25,10.25,0,0,1,2.91,4.23l2.35,6.45A10.25,10.25,0,0,0,232,132.2l9.4,8.58,1.7-1.21Z"/><path class="cls-3" d="M142.46,147l-4.94-13.23,11.07-1.34a10.12,10.12,0,0,0,4.52-1.69l7-4.76a10.35,10.35,0,0,1,4.85-1.72l6.83-.6a10.2,10.2,0,0,0,4.63-1.58l10.72-6.86,4.94,13.23-10.72,6.87a10.19,10.19,0,0,1-4.63,1.57l-6.83.6a10.27,10.27,0,0,0-4.84,1.72l-7,4.77a10.22,10.22,0,0,1-4.52,1.68Z"/><path class="cls-4" d="M178.3,127a10.32,10.32,0,0,1-4.63,1.58l-6.83.6a10.17,10.17,0,0,0-4.84,1.72l-7,4.76a10.37,10.37,0,0,1-4.51,1.69l-11.08,1.33.73,2,11.08-1.34a10.23,10.23,0,0,0,4.51-1.68l7-4.77a10.27,10.27,0,0,1,4.84-1.72l6.84-.6A10.19,10.19,0,0,0,179,129l10.72-6.87-.73-1.95Z"/><path class="cls-4" d="M180.66,133.35a10.32,10.32,0,0,1-4.63,1.58l-6.83.6a10.17,10.17,0,0,0-4.84,1.72l-7,4.76a10.36,10.36,0,0,1-4.52,1.69L141.73,145l.73,2,11.07-1.34a10.22,10.22,0,0,0,4.52-1.68l7-4.77a10.27,10.27,0,0,1,4.84-1.72l6.83-.6a10.19,10.19,0,0,0,4.63-1.57l10.72-6.87-.73-2Z"/><path class="cls-3" d="M86.87,120.25l-11.06-8.78,8.79-6.86a10.15,10.15,0,0,0,3-3.78l3.57-7.71a10.25,10.25,0,0,1,3.26-4l5.54-4a10.28,10.28,0,0,0,3.15-3.74L108.75,70l11.07,8.78-5.64,11.41A10.17,10.17,0,0,1,111,93.88l-5.54,4a10.34,10.34,0,0,0-3.26,4l-3.57,7.71a10.22,10.22,0,0,1-3,3.78Z"/><path class="cls-4" d="M107.27,84.66a10.27,10.27,0,0,1-3.15,3.74l-5.54,4a10.15,10.15,0,0,0-3.26,4l-3.57,7.72a10.27,10.27,0,0,1-3,3.77L80,114.76l1.64,1.3,8.79-6.86a10.35,10.35,0,0,0,3-3.78L97,97.71a10.15,10.15,0,0,1,3.26-4l5.54-4A10.32,10.32,0,0,0,108.9,86l5.64-11.42-1.63-1.29Z"/><path class="cls-4" d="M112.55,88.85a10.45,10.45,0,0,1-3.15,3.74l-5.54,4a10.15,10.15,0,0,0-3.26,4L97,108.31a10.25,10.25,0,0,1-3,3.78L85.24,119l1.63,1.3,8.8-6.86a10.22,10.22,0,0,0,3-3.78l3.57-7.71a10.34,10.34,0,0,1,3.26-4l5.54-4a10.17,10.17,0,0,0,3.15-3.74l5.64-11.41-1.64-1.3Z"/></g></g></g></svg>
