<svg xmlns="http://www.w3.org/2000/svg" viewBox="0 0 227 271" width="230px" height="274.56px"><defs><style>.cls-1{fill:#534741;opacity:0.1;}.cls-2{fill:#fddc49;}</style></defs><title>corn</title><g id="Layer_2" data-name="Layer 2"><g id="Toppings"><g id="corn"><rect class="cls-1" x="166" y="24" width="10" height="10" rx="3" ry="3"/><rect class="cls-1" x="136" y="93" width="10" height="10" rx="3" ry="3"/><rect class="cls-1" x="207" y="105" width="10" height="10" rx="3" ry="3"/><rect class="cls-1" x="79" y="35" width="10" height="10" rx="3" ry="3"/><rect class="cls-1" x="171" y="171" width="10" height="10" rx="3" ry="3"/><rect class="cls-1" x="63" y="96" width="10" height="10" rx="3" ry="3"/><rect class="cls-1" x="50" y="63" width="10" height="10" rx="3" ry="3"/><rect class="cls-1" x="179" y="88" width="10" height="10" rx="3" ry="3"/><rect class="cls-1" x="217" y="159" width="10" height="10" rx="3" ry="3"/><rect class="cls-1" x="187" y="226" width="10" height="10" rx="3" ry="3"/><rect class="cls-1" x="106" y="241" width="10" height="10" rx="3" ry="3"/><rect class="cls-1" x="96" y="176" width="10" height="10" rx="3" ry="3"/><rect class="cls-1" x="40" y="149" width="10" height="10" rx="3" ry="3"/><rect class="cls-1" x="3" y="112" width="10" height="10" rx="3" ry="3"/><rect class="cls-1" x="14" y="53" width="10" height="10" rx="3" ry="3"/><rect class="cls-1" x="7" y="183" width="10" height="10" rx="3" ry="3"/><rect class="cls-1" x="53" y="220" width="10" height="10" rx="3" ry="3"/><rect class="cls-1" x="113" y="51" width="10" height="10" rx="3" ry="3"/><rect class="cls-1" x="126" y="137" width="10" height="10" rx="3" ry="3"/><rect class="cls-1" x="83" y="135" width="10" height="10" rx="3" ry="3"/><rect class="cls-1" x="146" y="216" width="10" height="10" rx="3" ry="3"/><rect class="cls-1" x="197" y="51" width="10" height="10" rx="3" ry="3"/><rect class="cls-1" x="113" y="2" width="10" height="10" rx="3" ry="3"/><rect class="cls-1" x="182" y="130" width="10" height="10" rx="3" ry="3"/><rect class="cls-1" x="68" y="256" width="10" height="10" rx="3" ry="3"/><rect class="cls-1" x="156" y="261" width="10" height="10" rx="3" ry="3"/><rect class="cls-2" x="163" y="22" width="10" height="10" rx="3" ry="3"/><rect class="cls-2" x="133" y="91" width="10" height="10" rx="3" ry="3"/><rect class="cls-2" x="204" y="103" width="10" height="10" rx="3" ry="3"/><rect class="cls-2" x="76" y="33" width="10" height="10" rx="3" ry="3"/><rect class="cls-2" x="168" y="169" width="10" height="10" rx="3" ry="3"/><rect class="cls-2" x="60" y="94" width="10" height="10" rx="3" ry="3"/><rect class="cls-2" x="47" y="61" width="10" height="10" rx="3" ry="3"/><rect class="cls-2" x="176" y="86" width="10" height="10" rx="3" ry="3"/><rect class="cls-2" x="214" y="157" width="10" height="10" rx="3" ry="3"/><rect class="cls-2" x="184" y="224" width="10" height="10" rx="3" ry="3"/><rect class="cls-2" x="103" y="239" width="10" height="10" rx="3" ry="3"/><rect class="cls-2" x="93" y="174" width="10" height="10" rx="3" ry="3"/><rect class="cls-2" x="37" y="147" width="10" height="10" rx="3" ry="3"/><rect class="cls-2" y="110" width="10" height="10" rx="3" ry="3"/><rect class="cls-2" x="11" y="51" width="10" height="10" rx="3" ry="3"/><rect class="cls-2" x="4" y="181" width="10" height="10" rx="3" ry="3"/><rect class="cls-2" x="50" y="218" width="10" height="10" rx="3" ry="3"/><rect class="cls-2" x="110" y="49" width="10" height="10" rx="3" ry="3"/><rect class="cls-2" x="123" y="135" width="10" height="10" rx="3" ry="3"/><rect class="cls-2" x="80" y="133" width="10" height="10" rx="3" ry="3"/><rect class="cls-2" x="143" y="214" width="10" height="10" rx="3" ry="3"/><rect class="cls-2" x="194" y="49" width="10" height="10" rx="3" ry="3"/><rect class="cls-2" x="110" width="10" height="10" rx="3" ry="3"/><rect class="cls-2" x="179" y="128" width="10" height="10" rx="3" ry="3"/><rect class="cls-2" x="65" y="254" width="10" height="10" rx="3" ry="3"/><rect class="cls-2" x="153" y="259" width="10" height="10" rx="3" ry="3"/></g></g></g></svg>
