<svg xmlns="http://www.w3.org/2000/svg" viewBox="0 0 276.76 244.77" width="250px" height="221.09px"><defs><style>.cls-1{opacity:0.1;}.cls-2{fill:#534741;}.cls-3{fill:none;}.cls-4{fill:#fddc49;}.cls-5{fill:#e8c631;}</style></defs><title>pineapple</title><g id="Layer_2" data-name="Layer 2"><g id="Toppings"><g id="pineapple"><g class="cls-1"><polygon class="cls-2" points="155.47 9.3 155.27 9.13 140.03 18.49 140.42 19.94 149.33 18.27 155.47 9.3"/><path class="cls-2" d="M167,45.28a46.36,46.36,0,0,1-18,7l2.34,8.9L190.43,37l-8.84-7A46.31,46.31,0,0,1,167,45.28Z"/><path class="cls-2" d="M181.59,30,155.47,9.3l-6.14,9-8.91,1.67,8.5,32.32A46.61,46.61,0,0,0,181.59,30ZM161.54,40.26l-9.77-15a1.79,1.79,0,1,1,3-2l9.77,15a1.79,1.79,0,0,1-3,2Z"/><path class="cls-2" d="M164.54,38.3l-9.77-15a1.79,1.79,0,1,0-3,2l9.77,15a1.79,1.79,0,0,0,3-2Z"/><polygon class="cls-2" points="82.11 54.88 82.37 54.96 93.19 40.73 92.31 39.51 84.6 44.29 82.11 54.88"/><path class="cls-2" d="M58.4,25.47a46.53,46.53,0,0,1,14.3-13L67.3,5,39.5,41.67,50.28,45A46.32,46.32,0,0,1,58.4,25.47Z"/><path class="cls-2" d="M50.28,45l31.83,9.87L84.6,44.29l7.71-4.78L72.7,12.45A46.57,46.57,0,0,0,50.28,45Zm15-16.81L79.8,38.64a1.79,1.79,0,1,1-2.1,2.91L63.18,31.11a1.79,1.79,0,1,1,2.09-2.91Z"/><path class="cls-2" d="M63.18,31.11,77.7,41.55a1.79,1.79,0,1,0,2.1-2.91L65.27,28.2a1.79,1.79,0,1,0-2.09,2.91Z"/><polygon class="cls-2" points="83.03 125.01 82.87 124.8 65.82 130.15 65.83 131.65 74.89 132.21 83.03 125.01"/><path class="cls-2" d="M85.37,162.71a46.46,46.46,0,0,1-19.19,2.36l.09,9.2,43.88-13.84-6.85-9A46.26,46.26,0,0,1,85.37,162.71Z"/><path class="cls-2" d="M103.3,151.47,83,125l-8.14,7.2-9.06-.56.35,33.42a46.65,46.65,0,0,0,37.12-13.6Zm-22,5.05L75.53,139.6a1.79,1.79,0,1,1,3.39-1.16l5.82,16.91a1.79,1.79,0,0,1-3.39,1.17Z"/><path class="cls-2" d="M84.74,155.35l-5.82-16.91a1.79,1.79,0,1,0-3.39,1.16l5.82,16.92a1.79,1.79,0,0,0,3.39-1.17Z"/><polygon class="cls-2" points="183.34 189.59 183.37 189.33 167.45 181.21 166.41 182.29 172.48 189.03 183.34 189.59"/><path class="cls-2" d="M158.63,218.16a46.46,46.46,0,0,1-15.36-11.76L136.9,213l41,20.83,1.37-11.2A46.39,46.39,0,0,1,158.63,218.16Z"/><path class="cls-2" d="M179.3,222.67l4-33.08L172.48,189l-6.07-6.73-23.14,24.1a46.55,46.55,0,0,0,36,16.27Zm-19.21-11.76,7.68-16.15A1.79,1.79,0,1,1,171,196.3l-7.69,16.15a1.79,1.79,0,1,1-3.23-1.54Z"/><path class="cls-2" d="M163.32,212.45,171,196.3a1.79,1.79,0,1,0-3.24-1.54l-7.68,16.15a1.79,1.79,0,1,0,3.23,1.54Z"/><polygon class="cls-2" points="233.28 114.16 233.02 114.1 223.3 129.1 224.27 130.25 231.6 124.9 233.28 114.16"/><path class="cls-2" d="M259.13,141.7a46.35,46.35,0,0,1-13.28,14.06l6,7,25-38.66-11-2.52A46.25,46.25,0,0,1,259.13,141.7Z"/><path class="cls-2" d="M265.76,121.6l-32.48-7.44L231.6,124.9l-7.33,5.35,21.58,25.51a46.59,46.59,0,0,0,19.91-34.16Zm-13.68,17.89-15.27-9.31a1.79,1.79,0,1,1,1.87-3.06L254,136.43a1.79,1.79,0,0,1-1.87,3.06Z"/><path class="cls-2" d="M254,136.43l-15.27-9.31a1.79,1.79,0,1,0-1.87,3.06l15.27,9.31a1.79,1.79,0,0,0,1.87-3.06Z"/><polygon class="cls-2" points="179.87 112.4 179.85 112.14 162.58 107.5 161.79 108.78 169.13 114.11 179.87 112.4"/><path class="cls-2" d="M161.62,145.47a46.23,46.23,0,0,1-17.46-8.31L139.3,145l44.46,11.86-1-11.24A46.28,46.28,0,0,1,161.62,145.47Z"/><path class="cls-2" d="M182.78,145.6l-2.91-33.2-10.74,1.71-7.34-5.33-17.63,28.38a46.6,46.6,0,0,0,38.62,8.44Zm-21.23-7.51,4.16-17.4a1.79,1.79,0,0,1,3.49.84L165,138.92a1.79,1.79,0,1,1-3.48-.83Z"/><path class="cls-2" d="M165,138.92l4.17-17.39a1.79,1.79,0,0,0-3.49-.84l-4.16,17.4a1.79,1.79,0,1,0,3.48.83Z"/><polygon class="cls-2" points="65.9 199.11 65.63 199.09 58.04 215.27 59.16 216.28 65.69 209.99 65.9 199.11"/><path class="cls-2" d="M95.26,222.88A46.28,46.28,0,0,1,84,238.61l6.84,6.16,19.47-41.7-11.24-1A46.37,46.37,0,0,1,95.26,222.88Z"/><path class="cls-2" d="M99.09,202.07l-33.19-3L65.69,210l-6.53,6.29L84,238.61a46.55,46.55,0,0,0,15.07-36.54ZM88,221.66l-16.39-7.15A1.79,1.79,0,0,1,73,211.22l16.4,7.15A1.8,1.8,0,0,1,88,221.66Z"/><path class="cls-2" d="M89.41,218.37,73,211.22a1.79,1.79,0,0,0-1.43,3.29L88,221.66a1.8,1.8,0,0,0,1.44-3.29Z"/><polygon class="cls-2" points="52.91 109.63 53.12 109.48 48.12 92.32 46.62 92.3 45.88 101.34 52.91 109.63"/><path class="cls-2" d="M15.17,111.21A46.46,46.46,0,0,1,13.2,92L4,91.88,17,136,26,129.36A46.44,46.44,0,0,1,15.17,111.21Z"/><path class="cls-2" d="M26,129.36l26.87-19.73-7-8.29.75-9L13.2,92A46.65,46.65,0,0,0,26,129.36Zm-4.6-22.05,17-5.47a1.79,1.79,0,1,1,1.1,3.41l-17,5.47a1.79,1.79,0,1,1-1.1-3.41Z"/><path class="cls-2" d="M22.54,110.72l17-5.47a1.79,1.79,0,1,0-1.1-3.41l-17,5.47a1.79,1.79,0,1,0,1.1,3.41Z"/></g><polygon class="cls-3" points="151.47 4.3 151.27 4.13 136.03 13.49 136.42 14.94 145.33 13.27 151.47 4.3"/><path class="cls-3" d="M163,40.28a46.36,46.36,0,0,1-18,7l2.34,8.9L186.43,32l-8.84-7A46.31,46.31,0,0,1,163,40.28Z"/><path class="cls-4" d="M177.59,25,151.47,4.3l-6.14,9-8.91,1.67,8.5,32.32a46.36,46.36,0,0,0,18-7A46.31,46.31,0,0,0,177.59,25ZM157.54,35.26l-9.77-15a1.79,1.79,0,1,1,3-2l9.77,15a1.79,1.79,0,0,1-3,2Z"/><path class="cls-5" d="M160.54,33.3l-9.77-15a1.79,1.79,0,1,0-3,2l9.77,15a1.79,1.79,0,0,0,3-2Z"/><polygon class="cls-3" points="78.11 49.88 78.37 49.96 89.19 35.73 88.31 34.51 80.6 39.29 78.11 49.88"/><path class="cls-3" d="M54.4,20.47a46.53,46.53,0,0,1,14.3-13L63.3,0,35.5,36.67,46.28,40A46.32,46.32,0,0,1,54.4,20.47Z"/><path class="cls-4" d="M46.28,40l31.83,9.87L80.6,39.29l7.71-4.78L68.7,7.45A46.57,46.57,0,0,0,46.28,40Zm15-16.81L75.8,33.64a1.79,1.79,0,1,1-2.1,2.91L59.18,26.11a1.79,1.79,0,1,1,2.09-2.91Z"/><path class="cls-5" d="M59.18,26.11,73.7,36.55a1.79,1.79,0,1,0,2.1-2.91L61.27,23.2a1.79,1.79,0,1,0-2.09,2.91Z"/><polygon class="cls-3" points="79.03 120.01 78.87 119.8 61.82 125.15 61.83 126.65 70.89 127.21 79.03 120.01"/><path class="cls-3" d="M81.37,157.71a46.46,46.46,0,0,1-19.19,2.36l.09,9.2,43.88-13.84-6.85-9A46.26,46.26,0,0,1,81.37,157.71Z"/><path class="cls-4" d="M99.3,146.47,79,120l-8.14,7.2-9.06-.56.35,33.42a46.65,46.65,0,0,0,37.12-13.6Zm-22,5.05L71.53,134.6a1.79,1.79,0,1,1,3.39-1.16l5.82,16.91a1.79,1.79,0,0,1-3.39,1.17Z"/><path class="cls-5" d="M80.74,150.35l-5.82-16.91a1.79,1.79,0,1,0-3.39,1.16l5.82,16.92a1.79,1.79,0,0,0,3.39-1.17Z"/><polygon class="cls-3" points="179.34 184.59 179.37 184.33 163.45 176.21 162.41 177.29 168.48 184.03 179.34 184.59"/><path class="cls-3" d="M154.63,213.16a46.46,46.46,0,0,1-15.36-11.76L132.9,208l41,20.83,1.37-11.2A46.39,46.39,0,0,1,154.63,213.16Z"/><path class="cls-4" d="M175.3,217.67l4-33.08L168.48,184l-6.07-6.73-23.14,24.1a46.55,46.55,0,0,0,36,16.27Zm-19.21-11.76,7.68-16.15A1.79,1.79,0,1,1,167,191.3l-7.69,16.15a1.79,1.79,0,1,1-3.23-1.54Z"/><path class="cls-5" d="M159.32,207.45,167,191.3a1.79,1.79,0,1,0-3.24-1.54l-7.68,16.15a1.79,1.79,0,1,0,3.23,1.54Z"/><polygon class="cls-3" points="229.28 109.16 229.02 109.1 219.3 124.1 220.27 125.25 227.6 119.9 229.28 109.16"/><path class="cls-3" d="M255.13,136.7a46.35,46.35,0,0,1-13.28,14.06l6,7,25-38.66-11-2.52A46.25,46.25,0,0,1,255.13,136.7Z"/><path class="cls-4" d="M261.76,116.6l-32.48-7.44L227.6,119.9l-7.33,5.35,21.58,25.51a46.59,46.59,0,0,0,19.91-34.16Zm-13.68,17.89-15.27-9.31a1.79,1.79,0,1,1,1.87-3.06L250,131.43a1.79,1.79,0,0,1-1.87,3.06Z"/><path class="cls-5" d="M250,131.43l-15.27-9.31a1.79,1.79,0,1,0-1.87,3.06l15.27,9.31a1.79,1.79,0,0,0,1.87-3.06Z"/><polygon class="cls-3" points="175.87 107.4 175.85 107.14 158.58 102.5 157.79 103.78 165.13 109.11 175.87 107.4"/><path class="cls-3" d="M157.62,140.47a46.23,46.23,0,0,1-17.46-8.31L135.3,140l44.46,11.86-1-11.24A46.28,46.28,0,0,1,157.62,140.47Z"/><path class="cls-4" d="M178.78,140.6l-2.91-33.2-10.74,1.71-7.34-5.33-17.63,28.38a46.6,46.6,0,0,0,38.62,8.44Zm-21.23-7.51,4.16-17.4a1.79,1.79,0,0,1,3.49.84L161,133.92a1.79,1.79,0,1,1-3.48-.83Z"/><path class="cls-5" d="M161,133.92l4.17-17.39a1.79,1.79,0,0,0-3.49-.84l-4.16,17.4a1.79,1.79,0,1,0,3.48.83Z"/><polygon class="cls-3" points="61.9 194.11 61.63 194.09 54.04 210.27 55.16 211.28 61.7 204.99 61.9 194.11"/><path class="cls-3" d="M91.26,217.88A46.28,46.28,0,0,1,80,233.61l6.84,6.16,19.47-41.7-11.24-1A46.37,46.37,0,0,1,91.26,217.88Z"/><path class="cls-4" d="M95.09,197.07l-33.19-3L61.69,205l-6.53,6.29L80,233.61a46.55,46.55,0,0,0,15.07-36.54ZM84,216.66l-16.39-7.15A1.79,1.79,0,0,1,69,206.22l16.4,7.15A1.8,1.8,0,0,1,84,216.66Z"/><path class="cls-5" d="M85.41,213.37,69,206.22a1.79,1.79,0,0,0-1.43,3.29L84,216.66a1.8,1.8,0,0,0,1.44-3.29Z"/><polygon class="cls-3" points="48.91 104.63 49.12 104.48 44.12 87.32 42.62 87.3 41.88 96.34 48.91 104.63"/><path class="cls-3" d="M11.17,106.21A46.46,46.46,0,0,1,9.2,87L0,86.88,13,131,22,124.36A46.44,46.44,0,0,1,11.17,106.21Z"/><path class="cls-4" d="M22,124.36l26.87-19.73-7-8.29.75-9L9.2,87A46.65,46.65,0,0,0,22,124.36Zm-4.6-22,17-5.47a1.79,1.79,0,1,1,1.1,3.41l-17,5.47a1.79,1.79,0,1,1-1.1-3.41Z"/><path class="cls-5" d="M18.54,105.72l17-5.47a1.79,1.79,0,1,0-1.1-3.41l-17,5.47a1.79,1.79,0,1,0,1.1,3.41Z"/></g></g></g></svg>
